<svg width="2178" height="2357" viewBox="0 0 2178 2357" fill="none" xmlns="http://www.w3.org/2000/svg">
<path d="M838.754 1553.73C835.394 1550.52 832.298 1546.59 829.232 1542.68C823.276 1535.09 804.699 1540.85 788.808 1544.88C775.515 1548.26 766.429 1554 756.443 1560.37C741.72 1569.75 731.786 1578.67 721.779 1591.18C711.195 1604.41 697.044 1613.97 690.421 1621.95C682.173 1631.89 675.092 1641.38 667.412 1654.15C651.69 1680.3 634.063 1722.96 633.503 1734.6C632.954 1746.04 638.382 1753.76 644.168 1766.72C649.12 1777.82 655.374 1785.57 669.644 1796.02C693.677 1813.63 716.842 1817.1 722.769 1815.81C738.925 1812.3 752.695 1803.69 761.837 1795.7C772.013 1786.8 783.881 1774.15 799.371 1760.51C810.617 1750.6 825.688 1742.97 835.8 1733.78C847.871 1722.81 856.702 1719 867.936 1716.09C877.322 1713.66 888.734 1711.96 897.117 1706.49C909.97 1698.1 910.581 1676.33 911.14 1664.69C911.768 1651.63 908.031 1636.57 903.258 1623.21C897.12 1606.03 885.59 1597.21 878.416 1588.89C869.203 1578.2 864.646 1566.79 857.832 1559.47C856.109 1557.02 854.392 1553.77 852.336 1551.14C850.279 1548.51 847.935 1546.59 845.408 1539.63" stroke="#EDBDD5" stroke-width="200" stroke-linecap="round"/>
<path d="M920.962 1489.13C921.276 1488.46 921.59 1487.8 920.754 1486.98C919.919 1486.17 917.926 1485.23 916.096 1485.58C907.289 1487.29 900.29 1498.18 895.05 1510.08C889.77 1522.08 905.744 1536.9 913.842 1550.15C922.355 1564.09 927.881 1576.9 937.862 1585.33C951.496 1596.84 966.988 1603.59 973.046 1613.41C977.827 1621.17 986.454 1626.71 994.296 1636.18C1002.01 1645.49 1011.54 1650.08 1017.71 1651.78C1027.86 1654.56 1036.58 1642.26 1048.23 1635.85C1057.73 1630.62 1067.01 1622.98 1078.2 1617.57C1087.85 1612.91 1101.21 1595.7 1110.83 1584.15C1123.12 1569.38 1131.65 1541.87 1131.11 1532.56C1130.58 1523.51 1122.47 1516.16 1116.62 1507.66C1110.76 1499.15 1104.01 1492.67 1098 1484.5C1091.39 1475.51 1080.2 1466.65 1072.87 1459.5C1064.39 1451.22 1051.78 1443.39 1021.32 1428.98C1007.34 1422.37 994.716 1430.33 985.772 1431.88C971.199 1434.41 952.269 1447.22 940.293 1453.48C929.733 1458.99 921.162 1466.17 908.231 1474.45C902.465 1476.26 898.159 1478.33 894.592 1481.56C892.629 1483.11 890.359 1484.48 888.021 1485.88" stroke="#EDBDD5" stroke-width="200" stroke-linecap="round"/>
<path d="M835.949 1429.29C839.52 1426.89 849.381 1423.37 865.188 1418.52C881.071 1413.65 892.095 1404.14 901.723 1402.91C911.944 1401.61 934.424 1387.29 948.843 1379.62C953.233 1377.28 963.148 1375.32 974.325 1370.76C980.843 1368.1 984.738 1359.26 988.49 1348.73C990.048 1344.36 988.366 1341.25 986.32 1338.62C978.226 1328.23 969.015 1321.43 946.172 1304.88C915.457 1282.63 887.679 1278.05 881.733 1278.52C868.128 1279.59 857.642 1284.36 847.681 1285.43C838.011 1286.47 829.144 1287.35 821.575 1291.15C814.003 1294.95 806.834 1299.77 797.722 1307.78C788.279 1316.08 780.568 1327.55 776.498 1338.75C772.088 1350.89 788.228 1361.6 799.143 1374.13C807.889 1384.17 818.325 1400.38 825.612 1413.71C827.337 1416.19 829.016 1417.79 830.74 1420.24C832.463 1422.69 834.18 1425.94 837.962 1430.24" stroke="#EDBDD5" stroke-width="200" stroke-linecap="round"/>
<path d="M756.084 1421.13C758.741 1422.38 763.433 1424.6 768.836 1428.77C782.135 1439.05 781.203 1460.03 783.269 1471.27C784.35 1477.15 781.376 1482.29 778.815 1486C772.486 1495.15 757.067 1492.16 746.081 1491.08C734.543 1489.93 723.723 1500.2 715.517 1505.36C705.569 1511.6 695.58 1518.09 688.048 1524.4C681.065 1530.24 674.749 1537.8 667.765 1544.77C658.928 1553.59 652.702 1561.87 646.559 1568.83C639.187 1577.18 626.991 1583.36 613.354 1589.66C607.827 1592.22 602.974 1594.23 597.342 1594.03C584.693 1593.59 580.087 1580.18 574.552 1571.01C567.177 1558.8 567.563 1540.68 564.058 1525.44C561.28 1513.37 557.108 1503.68 556.535 1494.39C555.899 1484.07 557.005 1470.84 559.102 1461.13C561.142 1451.68 562.011 1442.81 573.513 1417.54C579.94 1403.42 591.38 1392.71 601.162 1384.14C612.17 1374.5 622.032 1367.74 634.483 1360.48C642.722 1355.68 651.635 1355.42 665.163 1351.98C676.475 1349.1 689.458 1355.2 706.335 1361.13C726.486 1368.2 739.18 1378.65 741.3 1384.57C745.557 1396.44 748.469 1407.64 752.008 1417.53C752.417 1420.19 751.826 1423.16 753.344 1432.15" stroke="#EDBDD5" stroke-width="200" stroke-linecap="round"/>
<path d="M953.645 1790.18C951.614 1787.6 948.538 1783.68 943.136 1778.67C936.348 1772.37 927.037 1771.86 919.614 1772.85C902.923 1775.07 896.141 1785.14 879.877 1791.82C866.783 1797.19 858.405 1804.26 848.776 1805.49C839.784 1806.63 831.043 1813.5 821.371 1819.2C810.052 1825.87 804.969 1835.66 799.988 1843.58C793.778 1853.45 785.677 1862.65 777.197 1877.93C770.671 1889.68 776.273 1905 781.328 1916.04C786.692 1927.76 792.24 1935.53 798.305 1947.85C804.281 1959.99 809.857 1967.68 816.991 1981.28C824.046 1994.73 834.846 2001.64 842.728 2011.1C851.668 2021.83 857.749 2029.69 865.901 2037.64C874.102 2045.64 875.636 2056.16 880.786 2064.37C887.505 2075.07 893.576 2087.63 895.498 2097.56C897.617 2108.51 896.626 2117.78 896.485 2126.76C896.344 2135.73 911.662 2139.7 923.657 2142.93C943.27 2148.2 952.95 2130.53 962.808 2124.49C971.94 2118.89 976.005 2106.11 989.49 2087.98C1032.07 2030.73 1021.56 2004.51 1022.49 1994.67C1023.57 1983.16 1026.12 1970.56 1023.64 1956.65C1021.65 1945.52 1019.61 1932.18 1020.03 1914.74C1020.3 1903.16 1012.82 1880.66 1009.2 1861.19C1007.08 1849.71 1003.88 1838.57 1003.49 1828.93C1002.97 1815.79 984.248 1805.47 977.558 1796.98C976.014 1795.01 974.335 1793.4 972.667 1793.41C970.999 1793.43 969.393 1795.1 967.739 1796.84" stroke="#EDBDD5" stroke-width="200" stroke-linecap="round"/>
<path d="M400.895 1526.74C408.031 1520.29 418.509 1515.41 428.552 1510.7C438.171 1506.18 450.864 1507.69 461.837 1507.11C470.866 1506.63 484.598 1517.81 494.729 1529.57C501.425 1537.34 503.95 1548.27 509.12 1556.48C513.634 1563.65 513.822 1572.62 518.287 1580.51C523.783 1590.21 530.264 1596.84 536.796 1606.47C546.918 1621.4 551.34 1632.2 555.493 1639.93C559.358 1647.13 544.572 1653.62 537.766 1661.91C531.575 1669.45 518.426 1670.83 503.553 1674.48C485.169 1678.99 468.359 1688.21 454.217 1694.67C428.157 1706.57 409.192 1712.77 397.797 1719.36C388.904 1724.5 376.697 1731.11 363.029 1737.4C350.837 1743.01 338.921 1750.21 329.653 1752.45C320.841 1754.57 312.622 1762.42 299.337 1768.89C287.898 1774.46 279.466 1778.82 266.963 1783.56C253.412 1788.69 243.859 1789.88 233.6 1791.64C222.231 1793.58 218.597 1775.59 214.9 1766.03C211.736 1757.85 210.987 1748.22 210.759 1737.41C210.517 1725.96 211.153 1711.36 216.458 1696.63C225.069 1672.72 241.042 1639.29 249.928 1628.29C258.215 1618.04 269.226 1609.11 281.123 1598.7C295.589 1586.04 314.682 1577.19 325.309 1570.31C335.341 1563.8 345.049 1554.6 356.165 1547.53C367.835 1540.12 379.46 1535.53 387.666 1530.38C389.96 1528.99 392.895 1527.94 396.049 1527.36C399.203 1526.78 402.488 1526.71 406.824 1524.62" stroke="#EDBDD5" stroke-width="200" stroke-linecap="round"/>
<path d="M1478.62 1519.66C1476.97 1518.88 1444.64 1516.13 1416.01 1516.4C1383.96 1516.69 1353.44 1517.32 1326.16 1519.27C1291.09 1521.77 1258.92 1521.24 1236.08 1531.47C1220.78 1538.32 1202.15 1538.68 1187.17 1534.8C1157.43 1527.1 1165.2 1487.61 1158.13 1460.09C1155.04 1448.08 1141.1 1440.39 1131.49 1429.56C1122.56 1419.51 1125.68 1401.57 1128.71 1386.19C1134.47 1356.89 1175.63 1353.6 1202.57 1338.86C1228.17 1324.84 1264.11 1313.21 1283.89 1296.13C1306.28 1286.66 1324.69 1274.31 1342.37 1265.84C1350.01 1260.98 1354.94 1254.96 1360.01 1248.76" stroke="#EDBDD5" stroke-width="200" stroke-linecap="round"/>
<path d="M764.477 917.019C766.207 917.773 768.557 948.273 768.854 979.038C769.201 1014.95 796.66 1058.5 805.245 1082.62C813.843 1106.78 829.648 1126.79 845.858 1146.08C854.345 1156.17 859.652 1170.48 862.987 1185.7C866.27 1200.7 857.322 1215.71 849.48 1225.69C835.526 1243.45 803.236 1232.27 775.053 1249.52C768.809 1253.34 767.134 1259.47 762.975 1263.86C754.221 1273.1 717.991 1261.67 672.305 1238.02C637.807 1220.15 630.858 1186.91 616.756 1167.58C610.234 1158.64 606.098 1145.64 581.033 1111.77C563.475 1088.05 546.292 1062.66 529.52 1040.02C522.454 1028.27 513.63 1015.64 504.382 1001.82C500.347 994.639 497.646 987.106 486.966 969.296" stroke="#EDBDD5" stroke-width="200" stroke-linecap="round"/>
<path d="M479.933 997.58C471.164 985.096 461.861 951.249 459.86 919.743C457.913 889.103 467.307 854.838 470.356 819.396C472.428 795.317 509.197 721.401 556.841 624.908C585.708 566.442 610.991 541.41 634.239 512.25C660.386 479.455 685.829 458.673 707.92 434.308C735.256 404.158 771.596 370.73 804.376 348.156C832.848 328.549 865.639 309.702 893.557 295.42C920.383 281.696 950.025 269.397 974.976 259.055C1000.83 251.224 1018.58 244.815 1029.61 243.736C1034.73 241.946 1038.85 237.634 1053.43 238.072" stroke="#EDBDD5" stroke-width="200" stroke-linecap="round"/>
<path d="M1474.31 1555.56C1506.45 1549.74 1558.83 1536.67 1610.28 1508.28C1649.49 1486.65 1699.5 1466.31 1744.07 1430.28C1800.97 1384.28 1854.8 1311.96 1891.1 1246.17C1950.87 1137.88 1981.06 1049.09 1983.97 1027.33C1988.9 990.414 1996.02 955.021 1996.68 928.978C1997.52 896.165 1992.2 860.557 1987.55 825.685C1980.44 772.32 1975.9 743.262 1966.82 717.86C1961.95 704.254 1956.81 685.704 1937.32 655.488C1916.93 623.865 1888.28 594.438 1867.18 567.568C1834.83 526.378 1820.52 501.262 1797.85 477.918C1783.25 462.886 1763.25 457.348 1708.94 428.543C1573.03 356.466 1470.37 319.006 1455.92 318.501C1423.28 317.36 1401.08 305.252 1376.27 301.976C1344.59 297.793 1314.62 287.565 1205.21 241.248C1161.13 222.588 1140.2 228.472 1130.38 226.967C1109.63 223.786 1091.13 243.103 1067.77 245.854C1037.55 249.475 1013.88 255.174 990.208 265.014C984.293 268.573 978.466 272.08 977.631 278.133" stroke="#EDBDD5" stroke-width="200" stroke-linecap="round"/>
<path d="M1594.25 925.227C1565.26 915.279 1503.55 897.473 1489.75 896.638C1478.26 895.943 1465.05 901 1411.03 905.656C1387.99 907.642 1369.16 918.061 1355.87 923.134C1334.66 931.232 1299.22 946.295 1272.33 961.096C1251.18 972.737 1229.49 993.779 1207 1002.5C1185.48 1010.84 1168.73 1024.53 1147.36 1035.74C1136.09 1041.65 1126.13 1052.59 1114.31 1062.68C1107.33 1068.63 1119.7 1042.19 1124.71 1026.62C1132.84 1001.29 1140.43 980.291 1146.02 963.467C1153.2 941.88 1156.49 928.264 1159.93 911.018C1163.34 893.929 1162.92 872.763 1159.72 858.474C1155.54 839.8 1164.27 815.771 1162.99 791.595C1162.11 774.918 1162.3 761.972 1161.84 748.975C1161.05 726.858 1152.45 694.988 1146.73 679.977C1141.65 666.637 1139.19 650.933 1131.8 635.627C1124.7 620.929 1115.32 607.53 1104.44 590.595C1096.45 578.144 1085.84 569.984 1073.99 561.071C1059.53 550.203 1048.51 541.027 1037.72 536.835C1022.78 531.038 1012.81 550.519 1003.13 562.014C990.503 577.016 974.496 593.742 964.241 608.351C955.55 620.732 948.49 628.779 938.614 640.635C930.012 650.962 922.027 658.785 915.005 669.636C907.655 680.995 899.762 687.939 886.948 712.049C873.713 736.951 851.682 773.81 833.705 806.816C820.191 831.626 802.134 864.712 787.934 895.718C781.765 909.189 786.177 920.473 784.101 930.841C783.778 933.536 783.459 936.19 784.262 938.482C785.064 940.773 786.997 942.62 793.622 946.712" stroke="#EDBDD5" stroke-width="200" stroke-linecap="round"/>
<path d="M1328.88 1253.26C1338.66 1250.37 1385.73 1246.27 1419.84 1233.49C1436.3 1227.32 1453.67 1218.79 1477.15 1208.12C1494.57 1200.2 1506.67 1194.63 1522.7 1185.71C1540.66 1175.71 1549.66 1169.59 1560.26 1164.21C1572.08 1158.22 1589.63 1146.99 1618.09 1123.63C1644.59 1101.9 1661.45 1064.96 1667.5 1039.2C1671.15 1023.7 1661.08 1005.96 1655.31 989.058C1647.19 965.281 1640.37 953.688 1635.49 940.005C1631.85 929.812 1619.16 926.614 1612.25 917.218C1608.54 913.101 1604.25 910.114 1599.81 907.55C1597.66 906.068 1595.73 904.221 1589.1 900.129" stroke="#EDBDD5" stroke-width="200" stroke-linecap="round"/>
<path d="M1043.55 543.385C1034.3 539.02 1019.58 526.458 1005.03 510.128C984.969 487.6 973.071 482.74 966.161 473.343C948.992 461.908 923.011 448.707 906.691 439.585C893.069 432.671 868.603 421.12 843.396 409.219" stroke="#EDBDD5" stroke-width="200" stroke-linecap="round"/>
<path d="M1569.03 924.65C1575.05 921.855 1592.42 916.879 1608.03 919.931C1620.8 922.427 1635.11 928.478 1660.37 938.974C1684.92 949.177 1716.68 957.584 1740.64 965.072C1753.56 969.112 1768.66 971.701 1782.37 976.744C1801.01 983.178 1822.63 991.516 1839.45 996.626C1851.73 1001.46 1871.61 1010.85 1889.91 1025.15" stroke="#EDBDD5" stroke-width="200" stroke-linecap="round"/>
<path d="M1646.01 1085.66C1643.07 1089.91 1633.37 1098.51 1620.22 1117.3C1610.6 1131.04 1589.4 1175.55 1578.39 1203.86C1574.03 1215.06 1573.22 1229.74 1569.26 1247.17C1560.73 1284.63 1565.2 1296.78 1565.24 1307.68C1565.28 1320.44 1569.47 1333.7 1574.27 1344.54C1578.8 1354.77 1581.61 1364.03 1584.94 1376.95C1588.41 1390.43 1596.53 1400.37 1603.23 1409.21C1609.99 1418.13 1613.64 1430.15 1622.27 1440.87C1630.19 1453.12 1639.55 1461.31 1645 1466.72C1648.12 1469.15 1651.94 1470.96 1656.97 1470.5" stroke="#EDBDD5" stroke-width="200" stroke-linecap="round"/>
<path d="M1472.39 1213.35C1463.78 1219.63 1449.52 1229.87 1437.8 1243.66C1407.52 1279.33 1387.67 1296.88 1376.47 1312.51C1362.36 1332.18 1349.34 1363.9 1348.7 1378.26C1348.14 1390.71 1348.37 1405.94 1347.9 1418.96C1347.19 1438.6 1362.01 1454.94 1370.88 1465.26C1383.54 1477.37 1398.35 1490.06 1406.58 1498.65C1409.3 1500.89 1413.12 1502.7 1417.06 1504.56" stroke="#EDBDD5" stroke-width="200" stroke-linecap="round"/>
<path d="M949.08 623.448C926.866 636.533 902.907 651.514 883.019 656.46C868.488 660.075 839.182 656.503 821.657 654.405C809.687 652.972 796.66 654.39 774.201 648.999C756.288 644.7 742.887 642.261 726.214 639.56C709.072 636.783 696.393 630.679 668.873 619.117C652.436 613.722 635.609 609.517 600.19 596.591C593.177 595.15 590.969 597.848 582.966 600.756" stroke="#EDBDD5" stroke-width="200" stroke-linecap="round"/>
<path d="M732.419 926.315C713.149 933.225 667.064 943.398 636.272 946.058C622.927 947.21 604.683 949.022 572.133 953.033C537.718 957.274 505.336 943.765 476.044 927.584C422.478 902.746 407.89 897.757 395.385 895.14C392.127 895.018 388.347 895.103 383.358 897.508" stroke="#EDBDD5" stroke-width="200" stroke-linecap="round"/>
<path d="M1671.81 1061.01C1679.02 1041.78 1678.67 1026.56 1674.78 1004.88C1668.53 970.032 1652.7 957.582 1648.05 938.415C1644.54 923.932 1635.93 909.091 1630.68 896.184C1623.14 877.677 1607.29 857.773 1601.42 844.123C1593.21 825.006 1572.44 803.523 1559.27 784.611C1517.71 724.934 1514.19 710.856 1503.93 695.627C1492.38 678.489 1482.71 669.527 1468.21 661.253C1457.12 654.923 1448.92 645.075 1441.1 637.601C1432.5 629.38 1420.49 619.356 1410.9 611.543C1401.55 603.921 1392.8 595.912 1323.33 562.619C1295.54 549.3 1277.15 548.847 1262.58 546.671C1246.73 544.304 1234.92 540.24 1192.8 530.697C1167.58 524.982 1140.22 524.771 1129.64 522.167C1116.25 518.874 1103.04 519.512 1089.47 519.239C1077.79 519.004 1064.83 518.471 1051.11 520.476C1038.12 522.373 1016.91 524.066 998.741 527.387C993.997 528.434 987.244 530.855 982.278 533.271C977.313 535.686 974.34 538.022 973.723 547.251" stroke="#EDBDD5" stroke-width="200" stroke-linecap="round"/>
<path d="M1915.31 779.314C1915.67 778.549 1916.03 777.785 1916.74 775.299C1917.44 772.813 1918.48 768.629 1919.56 764.319" stroke="#EDBDD5" stroke-width="200" stroke-linecap="round"/>
<path d="M1955.4 778.41C1929.2 766.039 1910.6 753.518 1855.11 726.329C1835.6 716.764 1819.24 716.954 1801.81 715.783C1788.46 714.885 1774.03 712.61 1763.08 709.791C1748.85 706.128 1738.31 704.246 1727.74 701.608C1721.79 699.278 1715.98 697.472 1710.05 696.087C1706.77 695.02 1702.95 693.215 1699.01 691.356" stroke="#EDBDD5" stroke-width="200" stroke-linecap="round"/>
<path d="M1195.61 425.348C1196.74 407.043 1188.7 388.142 1173.46 370.549C1137.99 329.595 1122.41 328.457 1114.75 319.668C1104.99 308.472 1093.13 300.465 1076.34 290.185C1052.01 278.218 1034.32 268.932 1030.25 265.591C1028.11 264.098 1025.81 263.015 1023.45 261.899" stroke="#EDBDD5" stroke-width="200" stroke-linecap="round"/>
<path d="M925.309 1961.98C912.772 1953.31 904.703 1943.91 898.231 1942.92C895.112 1942.44 892.416 1946.36 893.53 1948.33C894.645 1950.29 899.676 1951.29 903.892 1949.82C912.612 1946.78 918.421 1932.42 923.429 1917.45C925.718 1910.6 923.469 1904.25 921.106 1898.93C918.743 1893.6 915.306 1889.23 909.599 1885.12C903.892 1881 896.018 1877.29 890.103 1879.31C877.036 1883.78 873.923 1900.16 871.226 1905.83C868.546 1911.46 879.864 1916.89 885.531 1919.58C888.081 1920.8 891.073 1916.72 891.848 1912.21C893.645 1901.75 887.71 1888.7 882.424 1877.87C880.18 1873.27 876.139 1872.07 875.588 1874.56C875.038 1877.05 877.413 1883.68 882.573 1888.95C887.733 1894.22 895.607 1897.93 900.428 1896.77C905.249 1895.61 906.78 1889.45 905.256 1882.44C899.108 1867.74 890.906 1855.45 888.245 1850.71C889.021 1850.35 894.113 1854.13 899.361 1858.02" stroke="#EDBDD5" stroke-width="47" stroke-linecap="round"/>
<path d="M1485.95 1401.36C1482.82 1410.89 1479.7 1420.42 1478.33 1423.37C1474.03 1432.61 1470.19 1399.5 1464.44 1392.62C1461.49 1389.1 1456.5 1387.45 1452.82 1387.78C1445.71 1388.41 1440.5 1403.41 1437.19 1419.21C1435.91 1425.35 1439.85 1428.19 1443 1430.39C1446.15 1432.59 1449.53 1434.18 1453.19 1433.85C1456.85 1433.51 1460.69 1431.2 1464.79 1425.51C1468.9 1419.82 1473.14 1410.82 1473.58 1402.61C1474.02 1394.39 1470.52 1387.24 1464.78 1381.7C1459.04 1376.15 1451.17 1372.43 1445.19 1371.67C1439.21 1370.92 1435.37 1373.23 1434.81 1375.78C1434.26 1378.33 1437.1 1381.05 1440.75 1380.73C1449.58 1379.96 1455.94 1367.81 1457.77 1361C1458.15 1359.62 1452.58 1363.26 1453.44 1367.19C1454.29 1371.12 1460.51 1375.43 1466.76 1377.02C1473.01 1378.62 1479.1 1377.37 1484.16 1375.57C1489.22 1373.77 1493.06 1371.46 1497.02 1369.07" stroke="#EDBDD5" stroke-width="47" stroke-linecap="round"/>
<path d="M1833.58 1115.32C1835.83 1116.38 1815.47 1174.16 1780.44 1264.56C1759.78 1317.86 1740.33 1336.48 1717.5 1349.52C1696.98 1361.24 1738.08 1294.1 1755.75 1247.84C1785.36 1170.34 1809.59 1122.08 1803.63 1118.54C1795.18 1113.51 1779.28 1145.04 1759.02 1179.13C1739.47 1212.02 1721.46 1246.95 1691.79 1296.55C1672.45 1328.87 1650.62 1379.23 1667.06 1347.33C1683.49 1315.43 1740.44 1200.64 1763.84 1149.71C1787.25 1098.77 1775.37 1115.18 1755.06 1147.87C1705.09 1228.3 1669.53 1289.21 1656.48 1308.02C1650.66 1316.41 1647.81 1323.39 1646.4 1324.91C1644.67 1326.79 1652.32 1305.01 1667.08 1276.65C1683.65 1244.84 1717.99 1183.58 1751.48 1111.19C1763.56 1085.08 1764.19 1079.89 1762.26 1079.58C1760.32 1079.27 1755.41 1083.83 1736.16 1121.61C1681.32 1229.2 1652.16 1296.51 1666.41 1272.17C1677.47 1254.57 1696.31 1226.32 1715.04 1192.65C1733.77 1158.98 1751.83 1120.73 1770.43 1081.33" stroke="#EDBDD5" stroke-width="47" stroke-linecap="round"/>
<path d="M1770.43 1081.33C1759.19 1125.54 1747.94 1169.75 1743.51 1191.11C1739.07 1212.46 1741.79 1209.61 1752.22 1189.03C1762.65 1168.44 1780.7 1130.2 1799.31 1090.8" stroke="#EDBDD5" stroke-width="47" stroke-linecap="round"/>
<path d="M1706.21 625.845C1684.9 618.536 1663.59 611.226 1651.08 613.616C1638.58 616.006 1635.51 628.316 1635.66 636.844C1636.14 666.149 1675.86 678.209 1686 680.248C1694.85 682.025 1699.78 665.951 1704.53 652.962C1710.27 637.293 1708.83 617.457 1704.21 597.935C1701.85 587.942 1693.5 579.663 1685.46 573.032C1677.42 566.402 1668.42 562.153 1658.58 563.699C1611.55 571.087 1599.71 613.037 1598.78 622.29C1597.32 636.832 1610.04 649.882 1621.74 660.266C1657.51 691.987 1727.78 700.054 1766.14 695.909C1777.31 694.703 1782.6 675.921 1786.99 657.881C1789.13 649.096 1783.04 640.03 1777.56 633.899C1757.22 611.15 1724.91 601.33 1698.88 591.791C1680.88 585.195 1658.62 603.211 1637.68 621.084C1625.79 631.232 1625.2 647.247 1626.73 665.996C1628.27 684.983 1653.56 716.159 1685.64 758.356C1733.45 821.246 1768.81 837.389 1778.78 844.204C1782.5 846.745 1785.79 842.739 1786.86 839.056C1792.02 821.329 1769.73 797.644 1746.73 774.236C1737.65 764.995 1729.43 756.315 1720.03 749.791C1715.83 746.878 1712.34 745.454 1709.57 748.273C1683.32 775.005 1744.83 852.329 1793.67 899.105C1817.64 922.061 1845.08 931.795 1863.14 936.176C1870.38 937.931 1874.39 934.59 1877.7 930.587C1901.31 902.01 1882.61 820.593 1870.72 777.942C1862.21 747.443 1829.22 742.28 1802.1 736.375C1795.43 734.921 1789.31 741.359 1784.87 746.247C1780.44 751.136 1777.78 756.76 1777.07 764.093C1773.31 802.822 1823.68 861.714 1853.26 882.199C1864.77 890.177 1865.75 821.091 1857.03 744.115C1850.71 688.298 1826.47 648.072 1814.72 611.302C1798.53 560.672 1757.71 534.95 1695.89 505.598C1665 490.926 1636.94 516.613 1624.33 530.083C1618.96 535.815 1617.22 540.646 1616.89 539.886C1614.1 533.446 1616.1 516.695 1605.91 498.689C1584.87 461.533 1548.63 465.289 1538.61 467.454C1522.37 470.959 1512.09 489.634 1507.94 505.703C1498.72 541.398 1556.69 585.68 1586.81 606.322C1596.71 613.105 1589.92 549.102 1568.34 474.363C1553.84 424.194 1532.08 403.327 1521.21 394.028C1516.3 389.828 1511.53 388.042 1504.48 386.776C1459.14 378.636 1420.07 446.149 1412.45 469.581C1408.61 481.374 1410.98 494.543 1416.8 505.734C1428.95 529.071 1450.14 538.291 1461.35 538.081C1467.62 537.963 1472.3 526.748 1472.67 514.372C1473.51 485.635 1455.85 461.833 1438.41 445.972C1397.94 409.159 1353.4 399.497 1313.15 397.791C1287.47 396.702 1270.97 414.726 1262.32 428.629C1257.01 437.175 1251.61 449.811 1250.35 459.762C1249.09 469.714 1252.59 476.868 1257.47 481.319C1262.35 485.77 1268.51 487.3 1273.04 486.667C1281 485.554 1284.68 476.887 1287.59 469.259C1291.01 460.32 1290.29 450.356 1287.28 440.619C1283.44 428.194 1264.37 417.235 1241.78 410.696C1208.85 401.165 1192.11 431.678 1185.88 441.91C1182.92 446.772 1182.43 452.079 1188.67 457.857C1205.66 473.608 1234.02 477.978 1252.57 478.42C1259.47 478.584 1261 474.082 1263.17 470.922C1267.57 464.544 1268.37 449.805 1262.87 429.156C1256.18 404.079 1208.2 386.549 1180.83 379.149C1160.18 373.564 1138.91 388.516 1111.76 379.905C1089.55 372.861 1061.83 381.216 1043.18 394.004C1031.21 402.218 1013.25 422.136 992.949 443.105C985.205 451.105 980.146 451.108 975.782 445.65C963.88 430.765 960.137 413.942 952.455 408.231C947.888 404.836 940.867 402.051 935.172 400.738C900.25 392.684 855.748 443.728 841.129 468.775C829.889 488.033 812.275 509.319 798.179 533.259C792.137 543.52 779.629 557.805 774.292 572.021C764.148 599.045 818.241 534.645 857.199 505.145C878.357 489.125 894.415 494.08 899.202 492.859C918.864 487.844 862.939 487.472 841.896 489.354C808.819 492.313 761.048 503.223 735.433 516.16C720.424 523.74 715.231 544.115 696.518 560.311C682.879 572.114 670.641 585.587 649.394 623.261C610.556 692.128 591.159 750.93 587.873 766.719C583.098 789.658 572.855 810.356 572.943 829.197C572.968 834.615 575.156 840.621 578.909 845.915C582.662 851.209 588.88 855.52 595.66 855.991C621.424 857.781 640.573 831.491 659.062 811.668C674.226 795.408 691.994 766.901 713.623 740.203C724.448 726.842 733.455 708.572 739.073 695.218C740.05 692.893 728.409 704.605 711.918 729.248C676.887 781.596 658.423 840.919 652.286 868.617C650.518 876.594 654.52 872.756 659.646 863.401C664.772 854.045 671.675 839.423 673.779 829.141C675.882 818.859 672.976 813.36 669.761 808.341C666.545 803.321 663.108 798.947 659.119 797.022C655.13 795.097 650.694 795.754 645.488 802.278C631.834 819.389 624.766 844.578 617.621 875.78C606.212 925.599 607.445 975.287 610.21 1011.94C615.052 1076.11 638.131 1092.69 655.974 1112.28C660.722 1117.5 668.447 1119.59 673.782 1117.3C686.289 1111.92 687.665 1093.98 689.116 1083.58C692.114 1062.1 681.604 1048.02 677.304 1043.89C675.856 1042.5 673.723 1046.97 674.98 1054.5C682.218 1097.87 738.268 1159.23 773.34 1194.81C776.884 1198.41 760.598 1155.01 727.009 1095.45C700.013 1047.58 673.864 1026.28 660.575 1022.07C655.391 1020.42 652.442 1024.42 651.401 1029.49C645.388 1058.81 669.615 1093.63 684.781 1117.53C687.82 1122.32 691.122 1124.71 694.446 1122.17C697.769 1119.64 701.487 1111.76 701.652 1104.13C702.384 1070.28 667.685 996.017 649.663 952.391C647.774 947.816 648.869 943.7 651.625 942.188C654.382 940.676 659.412 941.675 666.409 940.143C673.405 938.611 682.215 934.518 691.293 930.3" stroke="#EDBDD5" stroke-width="126" stroke-linecap="round"/>
<path d="M1110.96 474.024C1135 475.742 1208.19 490.75 1257.79 523.152C1279.77 537.511 1281.28 575.027 1283.86 602.132C1285.94 623.965 1281.84 647.652 1284.75 679.622C1287.76 712.671 1297.07 753.465 1300.22 779.36C1303.28 804.465 1300.71 837.216 1295.45 854.263C1289.63 873.165 1316.54 818.514 1328.28 792.107C1337.78 770.746 1391.22 774.577 1414.73 775.169C1423.42 775.388 1431.87 774.218 1438.02 772.975C1440.79 772.415 1440.73 767.358 1434.79 762.425C1398.95 732.692 1365.53 717.93 1291.51 679.461C1272.83 669.749 1263.66 662.831 1253.67 656.051C1247.06 651.561 1255.63 635.529 1260.38 621.098C1262.09 615.917 1257.51 614.073 1254.97 614.94C1225.54 625.001 1199.94 700.519 1191.76 729.527C1188.12 742.453 1195.38 754.223 1200.87 761.67C1219.26 786.626 1270.84 791.353 1300.67 791.515C1313.54 791.585 1325.3 785.05 1339.24 781.962C1357.25 777.974 1366.22 754.436 1371.24 739.443C1373.15 733.712 1369.16 730.73 1365.48 729.658C1361.79 728.586 1357.36 729.243 1352.92 732.69C1342.62 740.684 1334.94 758.884 1328.36 778.658C1322.5 796.24 1333.31 815.135 1342.36 831.202C1350.48 845.634 1363.95 853.276 1374.08 855.332C1387.23 857.998 1392.15 831.951 1397.15 816.993C1409.18 780.986 1391.57 753.814 1385.25 746.664C1381.81 742.772 1375.62 740.701 1366.67 741.974C1325.05 747.885 1309.16 784.183 1295.4 813.157C1292.22 819.845 1297.04 827.148 1299.3 826.92C1305.08 807.476 1300.19 788.533 1296.93 770.304C1296.83 766.066 1297.3 762.16 1297.78 758.136" stroke="#EDBDD5" stroke-width="126" stroke-linecap="round"/>
<path d="M838.754 1553.73C835.394 1550.52 832.298 1546.59 829.232 1542.68C823.276 1535.09 804.699 1540.85 788.808 1544.88C775.515 1548.26 766.429 1554 756.443 1560.37C741.72 1569.75 731.786 1578.67 721.779 1591.18C711.195 1604.41 697.044 1613.97 690.421 1621.95C682.173 1631.89 675.092 1641.38 667.412 1654.15C651.69 1680.3 634.063 1722.96 633.503 1734.6C632.954 1746.04 638.382 1753.76 644.168 1766.72C649.12 1777.82 655.374 1785.57 669.644 1796.02C693.677 1813.63 716.842 1817.1 722.769 1815.81C738.925 1812.3 752.695 1803.69 761.837 1795.7C772.013 1786.8 783.881 1774.15 799.371 1760.51C810.617 1750.6 825.688 1742.97 835.8 1733.78C847.871 1722.81 856.702 1719 867.936 1716.09C877.322 1713.66 888.734 1711.96 897.117 1706.49C909.97 1698.1 910.581 1676.33 911.14 1664.69C911.768 1651.63 908.031 1636.57 903.258 1623.21C897.12 1606.03 885.59 1597.21 878.416 1588.89C869.203 1578.2 864.646 1566.79 857.832 1559.47C856.109 1557.02 854.392 1553.77 852.336 1551.14C850.279 1548.51 847.935 1546.59 845.408 1539.63" stroke="black" stroke-width="47" stroke-linecap="round"/>
<path d="M920.962 1489.13C921.276 1488.46 921.59 1487.8 920.754 1486.98C919.919 1486.17 917.926 1485.23 916.096 1485.58C907.289 1487.29 900.29 1498.18 895.05 1510.08C889.77 1522.08 905.744 1536.9 913.842 1550.15C922.355 1564.09 927.881 1576.9 937.862 1585.33C951.496 1596.84 966.988 1603.59 973.046 1613.41C977.827 1621.17 986.454 1626.71 994.296 1636.18C1002.01 1645.49 1011.54 1650.08 1017.71 1651.78C1027.86 1654.56 1036.58 1642.26 1048.23 1635.85C1057.73 1630.62 1067.01 1622.98 1078.2 1617.57C1087.85 1612.91 1101.21 1595.7 1110.83 1584.15C1123.12 1569.38 1131.65 1541.87 1131.11 1532.56C1130.58 1523.51 1122.47 1516.16 1116.62 1507.66C1110.76 1499.15 1104.01 1492.67 1098 1484.5C1091.39 1475.51 1080.2 1466.65 1072.87 1459.5C1064.39 1451.22 1051.78 1443.39 1021.32 1428.98C1007.34 1422.37 994.716 1430.33 985.772 1431.88C971.199 1434.41 952.269 1447.22 940.293 1453.48C929.733 1458.99 921.162 1466.17 908.231 1474.45C902.465 1476.26 898.159 1478.33 894.592 1481.56C892.629 1483.11 890.359 1484.48 888.021 1485.88" stroke="black" stroke-width="47" stroke-linecap="round"/>
<path d="M835.949 1429.29C839.52 1426.89 849.381 1423.37 865.188 1418.52C881.071 1413.65 892.095 1404.14 901.723 1402.91C911.944 1401.61 934.424 1387.29 948.843 1379.62C953.233 1377.28 963.148 1375.32 974.325 1370.76C980.843 1368.1 984.738 1359.26 988.49 1348.73C990.048 1344.36 988.366 1341.25 986.32 1338.62C978.226 1328.23 969.015 1321.43 946.172 1304.88C915.457 1282.63 887.679 1278.05 881.733 1278.52C868.128 1279.59 857.642 1284.36 847.681 1285.43C838.011 1286.47 829.144 1287.35 821.575 1291.15C814.003 1294.95 806.834 1299.77 797.722 1307.78C788.279 1316.08 780.568 1327.55 776.498 1338.75C772.088 1350.89 788.228 1361.6 799.143 1374.13C807.889 1384.17 818.325 1400.38 825.612 1413.71C827.337 1416.19 829.016 1417.79 830.74 1420.24C832.463 1422.69 834.18 1425.94 837.962 1430.24" stroke="black" stroke-width="47" stroke-linecap="round"/>
<path d="M756.084 1421.13C758.741 1422.38 763.433 1424.6 768.836 1428.77C782.135 1439.05 781.203 1460.03 783.269 1471.27C784.35 1477.15 781.376 1482.29 778.815 1486C772.486 1495.15 757.067 1492.16 746.081 1491.08C734.543 1489.93 723.723 1500.2 715.517 1505.36C705.569 1511.6 695.58 1518.09 688.048 1524.4C681.065 1530.24 674.749 1537.8 667.765 1544.77C658.928 1553.59 652.702 1561.87 646.559 1568.83C639.187 1577.18 626.991 1583.36 613.354 1589.66C607.827 1592.22 602.974 1594.23 597.342 1594.03C584.693 1593.59 580.087 1580.18 574.552 1571.01C567.177 1558.8 567.563 1540.68 564.058 1525.44C561.28 1513.37 557.108 1503.68 556.535 1494.39C555.899 1484.07 557.005 1470.84 559.102 1461.13C561.142 1451.68 562.011 1442.81 573.513 1417.54C579.94 1403.42 591.38 1392.71 601.162 1384.14C612.17 1374.5 622.032 1367.74 634.483 1360.48C642.722 1355.68 651.635 1355.42 665.163 1351.98C676.475 1349.1 689.458 1355.2 706.335 1361.13C726.486 1368.2 739.18 1378.65 741.3 1384.57C745.557 1396.44 748.469 1407.64 752.008 1417.53C752.417 1420.19 751.826 1423.16 753.344 1432.15" stroke="black" stroke-width="47" stroke-linecap="round"/>
<path d="M953.645 1790.18C951.614 1787.6 948.538 1783.68 943.136 1778.67C936.348 1772.37 927.037 1771.86 919.614 1772.85C902.923 1775.07 896.141 1785.14 879.877 1791.82C866.783 1797.19 858.405 1804.26 848.776 1805.49C839.784 1806.63 831.043 1813.5 821.371 1819.2C810.052 1825.87 804.969 1835.66 799.988 1843.58C793.778 1853.45 785.677 1862.65 777.197 1877.93C770.671 1889.68 776.273 1905 781.328 1916.04C786.692 1927.76 792.24 1935.53 798.305 1947.85C804.281 1959.99 809.857 1967.68 816.991 1981.28C824.046 1994.73 834.846 2001.64 842.728 2011.1C851.668 2021.83 857.749 2029.69 865.901 2037.64C874.102 2045.64 875.636 2056.16 880.786 2064.37C887.505 2075.07 893.576 2087.63 895.498 2097.56C897.617 2108.51 896.626 2117.78 896.485 2126.76C896.344 2135.73 911.662 2139.7 923.657 2142.93C943.27 2148.2 952.95 2130.53 962.808 2124.49C971.94 2118.89 976.005 2106.11 989.49 2087.98C1032.07 2030.73 1021.56 2004.51 1022.49 1994.67C1023.57 1983.16 1026.12 1970.56 1023.64 1956.65C1021.65 1945.52 1019.61 1932.18 1020.03 1914.74C1020.3 1903.16 1012.82 1880.66 1009.2 1861.19C1007.08 1849.71 1003.88 1838.57 1003.49 1828.93C1002.97 1815.79 984.248 1805.47 977.558 1796.98C976.014 1795.01 974.335 1793.4 972.667 1793.41C970.999 1793.43 969.393 1795.1 967.739 1796.84" stroke="black" stroke-width="47" stroke-linecap="round"/>
<path d="M400.895 1526.74C408.031 1520.29 418.509 1515.41 428.552 1510.7C438.171 1506.18 450.864 1507.69 461.837 1507.11C470.866 1506.63 484.598 1517.81 494.729 1529.57C501.425 1537.34 503.95 1548.27 509.12 1556.48C513.634 1563.65 513.822 1572.62 518.287 1580.51C523.783 1590.21 530.264 1596.84 536.796 1606.47C546.918 1621.4 551.34 1632.2 555.493 1639.93C559.358 1647.13 544.572 1653.62 537.766 1661.91C531.575 1669.45 518.426 1670.83 503.553 1674.48C485.169 1678.99 468.359 1688.21 454.217 1694.67C428.157 1706.57 409.192 1712.77 397.797 1719.36C388.904 1724.5 376.697 1731.11 363.029 1737.4C350.837 1743.01 338.921 1750.21 329.653 1752.45C320.841 1754.57 312.622 1762.42 299.337 1768.89C287.898 1774.46 279.466 1778.82 266.963 1783.56C253.412 1788.69 243.859 1789.88 233.6 1791.64C222.231 1793.58 218.597 1775.59 214.9 1766.03C211.736 1757.85 210.987 1748.22 210.759 1737.41C210.517 1725.96 211.153 1711.36 216.458 1696.63C225.069 1672.72 241.042 1639.29 249.928 1628.29C258.215 1618.04 269.226 1609.11 281.123 1598.7C295.589 1586.04 314.682 1577.19 325.309 1570.31C335.341 1563.8 345.049 1554.6 356.165 1547.53C367.835 1540.12 379.46 1535.53 387.666 1530.38C389.96 1528.99 392.895 1527.94 396.049 1527.36C399.203 1526.78 402.488 1526.71 406.824 1524.62" stroke="black" stroke-width="47" stroke-linecap="round"/>
<path d="M1478.62 1519.66C1476.97 1518.88 1444.64 1516.13 1416.01 1516.4C1383.96 1516.69 1353.44 1517.32 1326.16 1519.27C1291.09 1521.77 1258.92 1521.24 1236.08 1531.47C1220.78 1538.32 1202.15 1538.68 1187.17 1534.8C1157.43 1527.1 1165.2 1487.61 1158.13 1460.09C1155.04 1448.08 1141.1 1440.39 1131.49 1429.56C1122.56 1419.51 1125.68 1401.57 1128.71 1386.19C1134.47 1356.89 1175.63 1353.6 1202.57 1338.86C1228.17 1324.84 1264.11 1313.21 1283.89 1296.13C1306.28 1286.66 1324.69 1274.31 1342.37 1265.84C1350.01 1260.98 1354.94 1254.96 1360.01 1248.76" stroke="black" stroke-width="47" stroke-linecap="round"/>
<path d="M764.477 917.019C766.207 917.773 768.557 948.273 768.854 979.038C769.201 1014.95 796.66 1058.5 805.245 1082.62C813.843 1106.78 829.648 1126.79 845.858 1146.08C854.345 1156.17 859.652 1170.48 862.987 1185.7C866.27 1200.7 857.322 1215.71 849.48 1225.69C835.526 1243.45 803.236 1232.27 775.053 1249.52C768.809 1253.34 767.134 1259.47 762.975 1263.86C754.221 1273.1 717.991 1261.67 672.305 1238.02C637.807 1220.15 630.858 1186.91 616.756 1167.58C610.234 1158.64 606.098 1145.64 581.033 1111.77C563.475 1088.05 546.292 1062.66 529.52 1040.02C522.454 1028.27 513.63 1015.64 504.382 1001.82C500.347 994.639 497.646 987.106 486.966 969.296" stroke="black" stroke-width="47" stroke-linecap="round"/>
<path d="M479.933 997.58C471.164 985.096 461.861 951.249 459.86 919.743C457.913 889.103 467.307 854.838 470.356 819.396C472.428 795.317 509.197 721.401 556.841 624.908C585.708 566.442 610.991 541.41 634.239 512.25C660.386 479.455 685.829 458.673 707.92 434.308C735.256 404.158 771.596 370.73 804.376 348.156C832.848 328.549 865.639 309.702 893.557 295.42C920.383 281.696 950.025 269.397 974.976 259.055C1000.83 251.224 1018.58 244.815 1029.61 243.736C1034.73 241.946 1038.85 237.634 1053.43 238.072" stroke="black" stroke-width="47" stroke-linecap="round"/>
<path d="M1474.31 1555.56C1506.45 1549.74 1558.83 1536.67 1610.28 1508.28C1649.49 1486.65 1699.5 1466.31 1744.07 1430.28C1800.97 1384.28 1854.8 1311.96 1891.1 1246.17C1950.87 1137.88 1981.06 1049.09 1983.97 1027.33C1988.9 990.414 1996.02 955.021 1996.68 928.978C1997.52 896.165 1992.2 860.557 1987.55 825.685C1980.44 772.32 1975.9 743.262 1966.82 717.86C1961.95 704.254 1956.81 685.704 1937.32 655.488C1916.93 623.865 1888.28 594.438 1867.18 567.568C1834.83 526.378 1820.52 501.262 1797.85 477.918C1783.25 462.886 1763.25 457.348 1708.94 428.543C1573.03 356.466 1470.37 319.006 1455.92 318.501C1423.28 317.36 1401.08 305.252 1376.27 301.976C1344.59 297.793 1314.62 287.565 1205.21 241.248C1161.13 222.588 1140.2 228.472 1130.38 226.967C1109.63 223.786 1091.13 243.103 1067.77 245.854C1037.55 249.475 1013.88 255.174 990.208 265.014C984.293 268.573 978.466 272.08 977.631 278.133" stroke="black" stroke-width="47" stroke-linecap="round"/>
<path d="M1594.25 925.227C1565.26 915.279 1503.55 897.473 1489.75 896.638C1478.26 895.943 1465.05 901 1411.03 905.656C1387.99 907.642 1369.16 918.061 1355.87 923.134C1334.66 931.232 1299.22 946.295 1272.33 961.096C1251.18 972.737 1229.49 993.779 1207 1002.5C1185.48 1010.84 1168.73 1024.53 1147.36 1035.74C1136.09 1041.65 1126.13 1052.59 1114.31 1062.68C1107.33 1068.63 1119.7 1042.19 1124.71 1026.62C1132.84 1001.29 1140.43 980.291 1146.02 963.467C1153.2 941.88 1156.49 928.264 1159.93 911.018C1163.34 893.929 1162.92 872.763 1159.72 858.474C1155.54 839.8 1164.27 815.771 1162.99 791.595C1162.11 774.918 1162.3 761.972 1161.84 748.975C1161.05 726.858 1152.45 694.988 1146.73 679.977C1141.65 666.637 1139.19 650.933 1131.8 635.627C1124.7 620.929 1115.32 607.53 1104.44 590.595C1096.45 578.144 1085.84 569.984 1073.99 561.071C1059.53 550.203 1048.51 541.027 1037.72 536.835C1022.78 531.038 1012.81 550.519 1003.13 562.014C990.503 577.016 974.496 593.742 964.241 608.351C955.55 620.732 948.49 628.779 938.614 640.635C930.012 650.962 922.027 658.785 915.005 669.636C907.655 680.995 899.762 687.939 886.948 712.049C873.713 736.951 851.682 773.81 833.705 806.816C820.191 831.626 802.134 864.712 787.934 895.718C781.765 909.189 786.177 920.473 784.101 930.841C783.778 933.536 783.459 936.19 784.262 938.482C785.064 940.773 786.997 942.62 793.622 946.712" stroke="black" stroke-width="47" stroke-linecap="round"/>
<path d="M1328.88 1253.26C1338.66 1250.37 1385.73 1246.27 1419.84 1233.49C1436.3 1227.32 1453.67 1218.79 1477.15 1208.12C1494.57 1200.2 1506.67 1194.63 1522.7 1185.71C1540.66 1175.71 1549.66 1169.59 1560.26 1164.21C1572.08 1158.22 1589.63 1146.99 1618.09 1123.63C1644.59 1101.9 1661.45 1064.96 1667.5 1039.2C1671.15 1023.7 1661.08 1005.96 1655.31 989.058C1647.19 965.281 1640.37 953.688 1635.49 940.005C1631.85 929.812 1619.16 926.614 1612.25 917.218C1608.54 913.101 1604.25 910.114 1599.81 907.55C1597.66 906.068 1595.73 904.221 1589.1 900.129" stroke="black" stroke-width="47" stroke-linecap="round"/>
<path d="M1043.55 543.385C1034.3 539.02 1019.58 526.458 1005.03 510.128C984.969 487.6 973.071 482.74 966.161 473.343C948.992 461.908 923.011 448.707 906.691 439.585C893.069 432.671 868.603 421.12 843.396 409.219" stroke="black" stroke-width="47" stroke-linecap="round"/>
<path d="M1569.03 924.65C1575.05 921.855 1592.42 916.879 1608.03 919.931C1620.8 922.427 1635.11 928.478 1660.37 938.974C1684.92 949.177 1716.68 957.584 1740.64 965.072C1753.56 969.112 1768.66 971.701 1782.37 976.744C1801.01 983.178 1822.63 991.516 1839.45 996.626C1851.73 1001.46 1871.61 1010.85 1889.91 1025.15" stroke="black" stroke-width="47" stroke-linecap="round"/>
<path d="M1646.01 1085.66C1643.07 1089.91 1633.37 1098.51 1620.22 1117.3C1610.6 1131.04 1589.4 1175.55 1578.39 1203.86C1574.03 1215.06 1573.22 1229.74 1569.26 1247.17C1560.73 1284.63 1565.2 1296.78 1565.24 1307.68C1565.28 1320.44 1569.47 1333.7 1574.27 1344.54C1578.8 1354.77 1581.61 1364.03 1584.94 1376.95C1588.41 1390.43 1596.53 1400.37 1603.23 1409.21C1609.99 1418.13 1613.64 1430.15 1622.27 1440.87C1630.19 1453.12 1639.55 1461.31 1645 1466.72C1648.12 1469.15 1651.94 1470.96 1656.97 1470.5" stroke="black" stroke-width="47" stroke-linecap="round"/>
<path d="M1472.39 1213.35C1463.78 1219.63 1449.52 1229.87 1437.8 1243.66C1407.52 1279.33 1387.67 1296.88 1376.47 1312.51C1362.36 1332.18 1349.34 1363.9 1348.7 1378.26C1348.14 1390.71 1348.37 1405.94 1347.9 1418.96C1347.19 1438.6 1362.01 1454.94 1370.88 1465.26C1383.54 1477.37 1398.35 1490.06 1406.58 1498.65C1409.3 1500.89 1413.12 1502.7 1417.06 1504.56" stroke="black" stroke-width="47" stroke-linecap="round"/>
<path d="M949.08 623.448C926.866 636.533 902.907 651.514 883.019 656.46C868.488 660.075 839.182 656.503 821.657 654.405C809.687 652.972 796.66 654.39 774.201 648.999C756.288 644.7 742.887 642.261 726.214 639.56C709.072 636.783 696.393 630.679 668.873 619.117C652.436 613.722 635.609 609.517 600.19 596.591C593.177 595.15 590.969 597.848 582.966 600.756" stroke="black" stroke-width="47" stroke-linecap="round"/>
<path d="M732.419 926.315C713.149 933.225 667.064 943.398 636.272 946.058C622.927 947.21 604.683 949.022 572.133 953.033C537.718 957.274 505.336 943.765 476.044 927.584C422.478 902.746 407.89 897.757 395.385 895.14C392.127 895.018 388.347 895.103 383.358 897.508" stroke="black" stroke-width="47" stroke-linecap="round"/>
<path d="M1671.81 1061.01C1679.02 1041.78 1678.67 1026.56 1674.78 1004.88C1668.53 970.032 1652.7 957.582 1648.05 938.415C1644.54 923.932 1635.93 909.091 1630.68 896.184C1623.14 877.677 1607.29 857.773 1601.42 844.123C1593.21 825.006 1572.44 803.523 1559.27 784.611C1517.71 724.934 1514.19 710.856 1503.93 695.627C1492.38 678.489 1482.71 669.527 1468.21 661.253C1457.12 654.923 1448.92 645.075 1441.1 637.601C1432.5 629.38 1420.49 619.356 1410.9 611.543C1401.55 603.921 1392.8 595.912 1323.33 562.619C1295.54 549.3 1277.15 548.847 1262.58 546.671C1246.73 544.304 1234.92 540.24 1192.8 530.697C1167.58 524.982 1140.22 524.771 1129.64 522.167C1116.25 518.874 1103.04 519.512 1089.47 519.239C1077.79 519.004 1064.83 518.471 1051.11 520.476C1038.12 522.373 1016.91 524.066 998.741 527.387C993.997 528.434 987.244 530.855 982.278 533.271C977.313 535.686 974.34 538.022 973.723 547.251" stroke="black" stroke-width="47" stroke-linecap="round"/>
<path d="M1915.31 779.314C1915.67 778.549 1916.03 777.785 1916.74 775.299C1917.44 772.813 1918.48 768.629 1919.56 764.319" stroke="black" stroke-width="47" stroke-linecap="round"/>
<path d="M1955.4 778.41C1929.2 766.039 1910.6 753.518 1855.11 726.329C1835.6 716.764 1819.24 716.954 1801.81 715.783C1788.46 714.885 1774.03 712.61 1763.08 709.791C1748.85 706.128 1738.31 704.246 1727.74 701.608C1721.79 699.278 1715.98 697.472 1710.05 696.087C1706.77 695.02 1702.95 693.215 1699.01 691.356" stroke="black" stroke-width="47" stroke-linecap="round"/>
<path d="M1195.61 425.348C1196.74 407.043 1188.7 388.142 1173.46 370.549C1137.99 329.595 1122.41 328.457 1114.75 319.668C1104.99 308.472 1093.13 300.465 1076.34 290.185C1052.01 278.218 1034.32 268.932 1030.25 265.591C1028.11 264.098 1025.81 263.015 1023.45 261.899" stroke="black" stroke-width="47" stroke-linecap="round"/>
</svg>
