<svg width="12" height="36" viewBox="0 0 12 36" fill="none" xmlns="http://www.w3.org/2000/svg">
<path d="M5.00911 11.75C5.20239 11.75 5.59189 11.5568 6.27277 11.4572C8.12981 11.1856 8.51749 13.9874 9.15591 16.0374C9.67582 17.7068 9.88805 19.0655 10.0359 20.5781C10.4383 24.6935 10.0872 30.9729 9.11345 32.4884C8.6474 33.2138 7.74729 33.5178 6.82187 33.6642C6.38234 33.7338 5.9931 33.714 5.55235 33.4724C3.5531 32.3765 3.35156 30.4985 3.00892 29.2773C2.81148 28.5736 2.76586 27.8599 2.473 25.2462C1.72993 18.6143 2.66336 13.7063 3.2476 13.0239C3.83184 12.5349 4.22719 12.0458 4.61522 11.6065C4.90661 11.4572 5.38982 11.4572 5.88767 11.4572" stroke="black" stroke-width="3" stroke-linecap="round"/>
<path d="M3.5447 2.37868C3.5447 2.1854 3.5447 1.99212 3.68967 1.84422C4.03891 1.48792 5.09975 1.50012 6.22138 1.64508C6.68567 1.70509 6.8598 2.07997 7.00769 2.37429C7.29206 2.94021 7.3518 3.93373 7.20683 5.05536C7.14683 5.51964 6.77195 5.69378 6.47763 5.84167C5.91171 6.12604 4.53162 6.18577 2.87261 6.04081C2.0579 5.96962 1.88715 4.92065 1.5943 4.04502C1.436 3.57169 1.49473 2.9761 1.63969 2.53243C1.78466 2.08876 2.07458 1.79883 2.6105 1.64948C3.14642 1.50012 3.91956 1.50012 4.71612 1.50012" stroke="black" stroke-width="3" stroke-linecap="round"/>
</svg>
